# xmcd
#
# Track frame offsets:
#	150
#	23016
#	72057
#	96939
#	119930
#	164796
#	184823
#	235425
#	262233
#	277977
#	302502
#
# Disc length: 4267 seconds
#
# Revision: 2
# Processed by: cddbd v1.5.2PL0 Copyright (c) Steve Scherf et al.
# Submitted via: EasyCDDAExtractor 16.0.1.1
#
DISCID=a310a90b
DTITLE=Tommy Castro - No Foolin'
DYEAR=1993
DGENRE=Blues
TTITLE0=Mammer-Jammer
TTITLE1=Sweet Little Angel
TTITLE2=Can't Get Next To You
TTITLE3=You Got Somethin'
TTITLE4=Let Me Love You Baby
TTITLE5=Me And My Guitar
TTITLE6=Stone Crazy
TTITLE7=Woke Up This Mornin'
TTITLE8=Midnight Mover
TTITLE9=All Night Long
TTITLE10=Clemency
EXTD=YEAR: 1994
EXTT0=
EXTT1=
EXTT2=
EXTT3=
EXTT4=
EXTT5=
EXTT6=
EXTT7=
EXTT8=
EXTT9=
EXTT10=
PLAYORDER=
